<svg xmlns="http://www.w3.org/2000/svg" viewBox="0 0 100 100" width="100" height="100">
  <defs>
    <linearGradient id="bg" x1="0%" y1="0%" x2="100%" y2="100%">
      <stop offset="0%" style="stop-color:#4f46e5"/>
      <stop offset="100%" style="stop-color:#7c3aed"/>
    </linearGradient>
    <linearGradient id="icon" x1="0%" y1="0%" x2="100%" y2="100%">
      <stop offset="0%" style="stop-color:#ffffff"/>
      <stop offset="100%" style="stop-color:#f3f4f6"/>
    </linearGradient>
  </defs>
  
  <!-- Background -->
  <rect width="100" height="100" rx="20" fill="url(#bg)"/>
  
  <!-- Main Icon - Project/Tasks -->
  <g fill="url(#icon)">
    <!-- Checklist Lines -->
    <rect x="35" y="25" width="30" height="3" rx="1.5"/>
    <rect x="35" y="35" width="25" height="3" rx="1.5"/>
    <rect x="35" y="45" width="28" height="3" rx="1.5"/>
    
    <!-- Checkboxes -->
    <rect x="20" y="23" width="8" height="8" rx="2" fill="none" stroke="url(#icon)" stroke-width="2"/>
    <rect x="20" y="33" width="8" height="8" rx="2" fill="none" stroke="url(#icon)" stroke-width="2"/>
    <rect x="20" y="43" width="8" height="8" rx="2" fill="url(#icon)"/>
    
    <!-- Check mark -->
    <path d="M22 46 L24 48 L27 45" fill="none" stroke="#4f46e5" stroke-width="2" stroke-linecap="round" stroke-linejoin="round"/>
    
    <!-- Project Icon -->
    <circle cx="75" cy="35" r="8" fill="none" stroke="url(#icon)" stroke-width="2"/>
    <circle cx="75" cy="35" r="3" fill="url(#icon)"/>
    
    <!-- Calendar Icon -->
    <rect x="65" y="55" width="20" height="16" rx="3" fill="none" stroke="url(#icon)" stroke-width="2"/>
    <rect x="65" y="60" width="20" height="2" fill="url(#icon)"/>
    <line x1="70" y1="52" x2="70" y2="58" stroke="url(#icon)" stroke-width="2" stroke-linecap="round"/>
    <line x1="80" y1="52" x2="80" y2="58" stroke="url(#icon)" stroke-width="2" stroke-linecap="round"/>
    
    <!-- Small dots -->
    <circle cx="68" cy="65" r="1" fill="url(#icon)"/>
    <circle cx="72" cy="65" r="1" fill="url(#icon)"/>
    <circle cx="76" cy="65" r="1" fill="url(#icon)"/>
    <circle cx="80" cy="65" r="1" fill="url(#icon)"/>
  </g>
  
  <!-- Subtle highlight -->
  <ellipse cx="30" cy="20" rx="15" ry="8" fill="rgba(255,255,255,0.1)"/>
</svg>
